<svg width="136" height="48" viewBox="0 0 136 48" fill="none" xmlns="http://www.w3.org/2000/svg">
<path fill-rule="evenodd" clip-rule="evenodd" d="M55 28C55.5523 28 56 27.5523 56 27L56 24C56 19.5817 59.5817 16 64 16L112 16C116.418 16 120 19.5817 120 24C120 28.4183 116.418 32 112 32H100.746C100.303 32 99.9152 32.2914 99.7776 32.7119C97.8232 38.6874 93.9126 43.7776 88.8027 47.226C88.4668 47.4527 88.6234 48 89.0287 48H112C125.255 48 136 37.2548 136 24C136 10.7452 125.255 1.0767e-05 112 9.60826e-06L64 0C50.7452 -1.15877e-06 40 10.7452 40 24L40 27C40 27.5523 40.4477 28 41 28H55Z" fill="#F2F2F2"/>
<path fill-rule="evenodd" clip-rule="evenodd" d="M81 20C80.4477 20 80 20.4477 80 21L80 24C80 28.4183 76.4183 32 72 32L24 32C19.5818 32 16 28.4183 16 24C16 19.5817 19.5818 16 24 16L35.2543 16C35.6967 16 36.0848 15.7086 36.2224 15.2881C38.1768 9.31265 42.0874 4.22238 47.1973 0.773986C47.5332 0.547271 47.3766 1.86374e-05 46.9713 1.8602e-05L24 1.65937e-05C10.7452 1.16203e-05 4.90333e-05 10.7452 4.78745e-05 24C4.67157e-05 37.2548 10.7452 48 24 48L72 48C85.2548 48 96 37.2548 96 24L96 21C96 20.4477 95.5523 20 95 20L81 20Z" fill="#F2F2F2"/>
</svg>
