<svg width="60" height="60" viewBox="0 0 60 60" fill="none" xmlns="http://www.w3.org/2000/svg">
<g clip-path="url(#clip0_308_2)">
<path d="M30 59C46.0163 59 59 46.0163 59 30C59 13.9837 46.0163 1 30 1C13.9837 1 1 13.9837 1 30C1 46.0163 13.9837 59 30 59Z" stroke="#EB444D" stroke-width="2"/>
<path fill-rule="evenodd" clip-rule="evenodd" d="M28.151 33.8444L27.5006 16.5381C27.4486 15.152 28.5581 14 29.9451 14C31.3342 14 32.4445 15.1552 32.3894 16.5431L31.703 33.8481C31.6652 34.8016 30.8812 35.555 29.9271 35.555C28.9714 35.555 28.1869 34.7994 28.151 33.8444ZM27.855 44.915C28.425 45.485 29.13 45.77 29.97 45.77C30.81 45.77 31.5 45.485 32.04 44.915C32.58 44.345 32.85 43.67 32.85 42.89C32.85 42.05 32.58 41.36 32.04 40.82C31.5 40.28 30.81 40.01 29.97 40.01C29.13 40.01 28.425 40.28 27.855 40.82C27.285 41.36 27 42.05 27 42.89C27 43.67 27.285 44.345 27.855 44.915Z" fill="#EB444D"/>
</g>
<defs>
<clipPath id="clip0_308_2">
<rect width="60" height="60" fill="white"/>
</clipPath>
</defs>
</svg>
