<svg width="191" height="90" viewBox="0 0 191 90" fill="none" xmlns="http://www.w3.org/2000/svg">
<rect x="191" y="0.493652" width="59.6079" height="22.3529" rx="1.86275" transform="rotate(90 191 0.493652)" fill="#3B3B3A"/>
<rect x="191" y="22.8472" width="59.6078" height="22.353" rx="1.86275" transform="rotate(-180 191 22.8472)" fill="#3B3B3A"/>
<rect x="1" y="86.1799" width="190" height="3.72549" rx="1.86275" fill="#3B3B3A"/>
<path fill-rule="evenodd" clip-rule="evenodd" d="M122.824 52.6508C123.318 52.6508 123.792 52.4546 124.142 52.1052L170.045 6.20223C170.772 5.47478 171.951 5.47478 172.679 6.20223L185.85 19.3738C186.578 20.1013 186.578 21.2807 185.85 22.0082L138.311 69.5479C134.817 73.0412 130.079 75.0038 125.139 75.0038H56.802C51.8617 75.0038 47.1237 73.0412 43.6304 69.5479L16.2887 42.2062C15.9393 41.8569 15.4655 41.6606 14.9715 41.6606H2.30391C1.27514 41.6606 0.441162 40.8266 0.441162 39.7979V21.1704C0.441162 20.1416 1.27514 19.3076 2.30391 19.3076H17.2862C22.2265 19.3076 26.9645 21.2702 30.4578 24.7635L57.7995 52.1052C58.1489 52.4545 58.6227 52.6508 59.1167 52.6508H122.824Z" fill="#3B3B3A"/>
</svg>
