<svg width="190" height="90" viewBox="0 0 190 90" fill="none" xmlns="http://www.w3.org/2000/svg">
<rect x="122.941" y="45.2003" width="42.8431" height="22.3529" rx="1.86275" transform="rotate(90 122.941 45.2003)" fill="#3B3B3A"/>
<rect x="190" y="0.494141" width="72.6471" height="22.3529" rx="1.86275" transform="rotate(90 190 0.494141)" fill="#3B3B3A"/>
<rect x="156.471" y="22.8472" width="57.7451" height="22.3529" rx="1.86275" transform="rotate(90 156.471 22.8472)" fill="#3B3B3A"/>
<path d="M44.7059 21.1152V2.35689C44.7059 1.32812 43.8715 0.490089 42.8436 0.532934C36.2833 0.80639 29.8757 2.52123 24.0724 5.54049C22.6316 6.2901 21.228 7.12012 19.8686 8.02844C12.5168 12.9408 6.78673 19.9229 3.40305 28.0918C0.0193704 36.2607 -0.865955 45.2496 0.859031 53.9217C2.58402 62.5938 6.84184 70.5596 13.0941 76.8118C19.3463 83.0641 27.3121 87.3219 35.9842 89.0469C44.6563 90.7719 53.6452 89.8865 61.8141 86.5029C69.983 83.1192 76.9651 77.3891 81.8775 70.0373C82.7858 68.6779 83.6158 67.2743 84.3654 65.8335C87.3847 60.0302 89.0995 53.6226 89.373 47.0623C89.4158 46.0344 88.5778 45.2 87.549 45.2H68.7907H46.5686C45.5399 45.2 44.7059 44.366 44.7059 43.3373V21.1152Z" fill="#3B3B3A"/>
<path fill-rule="evenodd" clip-rule="evenodd" d="M169.903 75.0038C168.8 75.0038 167.721 75.3304 166.803 75.9424L159.381 80.8906C157.851 81.9105 156.053 82.4548 154.215 82.4548H136.374C135.27 82.4548 134.192 82.7814 133.274 83.3933L125.852 88.3415C124.322 89.3615 122.524 89.9058 120.685 89.9058H102.451C101.422 89.9058 100.588 89.0718 100.588 88.043V86.1803H120.685C121.788 86.1803 122.867 85.8537 123.785 85.2417L131.207 80.2935C132.737 79.2736 134.535 78.7293 136.374 78.7293H154.215C155.318 78.7293 156.396 78.4027 157.314 77.7908L164.737 72.8426C166.267 71.8226 168.064 71.2783 169.903 71.2783H190V73.1411C190 74.1698 189.166 75.0038 188.137 75.0038H169.903Z" fill="#3B3B3A"/>
</svg>
